<?xml version="1.0" encoding="UTF-8"?>
<!DOCTYPE svg PUBLIC "-//W3C//DTD SVG 1.1//EN" "http://www.w3.org/Graphics/SVG/1.1/DTD/svg11.dtd">
<!-- Creator: CorelDRAW Standard 2021 (64-Bit) -->
<svg xmlns="http://www.w3.org/2000/svg" xml:space="preserve" width="6.2in" height="1.875in" version="1.1" style="shape-rendering:geometricPrecision; text-rendering:geometricPrecision; image-rendering:optimizeQuality; fill-rule:evenodd; clip-rule:evenodd"
viewBox="0 0 6200 1875"
 xmlns:xlink="http://www.w3.org/1999/xlink"
 xmlns:xodm="http://www.corel.com/coreldraw/odm/2003">
 <defs>
  <style type="text/css">
   <![CDATA[
    .fil0 {fill:black}
   ]]>
  </style>
 </defs>
 <g id="Layer_x0020_1">
  <metadata id="CorelCorpID_0Corel-Layer"/>
  <g>
   <path class="fil0" d="M-0 478.78l492.37 0 325.42 851.75 350.02 -851.75 446.91 0 -553.69 1395.93 -498.08 0 -562.96 -1395.93zm4562.92 -476.21c155.28,0 281.15,107.2 281.15,239.46 0,132.25 -125.87,239.46 -281.15,239.46 -155.28,0 -281.15,-107.21 -281.15,-239.46 0,-132.25 125.87,-239.46 281.15,-239.46zm964.42 478.41c289.38,0 541.37,145.1 672.66,359.49l-406.24 199.95c-46.98,-111.06 -148.6,-187.97 -266.42,-187.97 -162.5,0 -294.21,146.29 -294.21,326.75 0,180.46 131.72,326.75 294.21,326.75 121.63,0 226,-81.95 270.81,-198.84 131.48,70.24 305.52,163.62 398.99,215.46 -132.07,211.84 -382.52,354.85 -669.8,354.85 -335.1,0 -620.08,-194.55 -725.51,-465.99l0 462.99 -483.5 0 0 -58.2c-93.26,44.99 -202.01,58.94 -299.89,58.66 -244.47,-0.7 -462.59,-133.89 -505.94,-414.11 0,-184.95 0,-369.9 0,-554.85l-107.19 0 278.07 -556.52 -172.13 28.84 70.07 -176.41 397.17 1.85 0 351.98 317.08 0 0 351.98 -315.33 0 0 457.01c0,169.64 178.37,201.05 292.56,111.71l47.3 140.44 0 -1062.22 481.75 0 0 392.39c105.43,-271.44 390.41,-465.99 725.51,-465.99zm-3333.81 0.21c2.1,0.04 4.19,0.12 6.29,0.18 4.05,0.12 8.1,0.24 12.13,0.42l6.92 0.33c3.96,0.21 7.9,0.43 11.84,0.69l6.12 0.4c4.42,0.31 8.82,0.68 13.22,1.06l5.12 0.44c5.88,0.54 11.74,1.15 17.57,1.82l4.31 0.53c4.48,0.54 8.94,1.1 13.39,1.7l6.63 0.95c3.7,0.53 7.39,1.08 11.07,1.66l6.81 1.11c3.81,0.63 7.63,1.3 11.43,1.98l6.03 1.1c4.48,0.84 8.95,1.73 13.4,2.65l3.92 0.79c5.63,1.18 11.24,2.43 16.82,3.72l5.21 1.26c4.04,0.98 8.09,1.94 12.11,2.97l5.79 1.51c3.7,0.98 7.41,1.97 11.09,3l6.33 1.78c3.44,0.98 6.86,2 10.27,3.02 2.25,0.68 4.51,1.34 6.76,2.04 3.9,1.21 7.77,2.46 11.64,3.72l4.59 1.48 -246.8 -42.33zm262.2 47.65c2.22,0.78 4.41,1.6 6.62,2.41 3.24,1.19 6.48,2.38 9.7,3.61l6.71 2.59c3.04,1.19 6.08,2.39 9.1,3.61 2.31,0.94 4.62,1.87 6.92,2.83 2.97,1.24 5.93,2.5 8.88,3.76l6.85 2.95c4.18,1.83 8.34,3.73 12.48,5.63 2.35,1.08 4.69,2.19 7.02,3.29 3.3,1.56 6.59,3.13 9.87,4.73 2.48,1.21 4.95,2.46 7.41,3.7l7.54 3.83c2.4,1.24 4.8,2.49 7.18,3.75 2.7,1.43 5.37,2.87 8.05,4.33 2.17,1.18 4.33,2.35 6.48,3.54 2.89,1.61 5.76,3.25 8.62,4.89 1.97,1.13 3.96,2.24 5.92,3.39 3.78,2.2 7.52,4.45 11.24,6.72 3.11,1.89 6.18,3.8 9.26,5.73 2.19,1.37 4.4,2.74 6.58,4.14 2.49,1.59 4.97,3.22 7.43,4.84l6.17 4.08c2.49,1.67 4.98,3.35 7.45,5.06l6.07 4.23c2.41,1.69 4.82,3.38 7.21,5.1 1.92,1.37 3.81,2.78 5.72,4.18 5.72,4.19 11.37,8.45 16.95,12.78l1.99 1.53c2.66,2.08 5.28,4.19 7.91,6.31l4.53 3.65c2.49,2.04 4.96,4.09 7.42,6.16l5.12 4.33c2.35,2 4.69,4.02 7.01,6.06l4.83 4.29c2.43,2.17 4.87,4.33 7.26,6.52l3.02 2.81c5.56,5.14 11.03,10.35 16.41,15.65l2.16 2.11c2.42,2.4 4.8,4.82 7.17,7.25l4.04 4.13c2.29,2.37 4.54,4.76 6.8,7.15l3.8 4.07c2.37,2.56 4.73,5.13 7.07,7.73l2.82 3.18c8.3,9.35 16.35,18.91 24.13,28.65l1.94 2.41c2.17,2.74 4.29,5.49 6.41,8.26l3.24 4.24c2.12,2.8 4.21,5.63 6.29,8.46l2.49 3.44c2.2,3.04 4.38,6.1 6.54,9.17l1.79 2.61c7.2,10.43 14.11,21.04 20.72,31.83l1.54 2.51c1.96,3.24 3.89,6.5 5.8,9.77l2.05 3.52c1.86,3.22 3.68,6.44 5.48,9.7l1.78 3.26c1.91,3.48 3.79,6.96 5.63,10.47l0.17 0.32c6.25,11.94 12.12,24.07 17.63,36.38l1.14 2.53c1.54,3.49 3.05,6.98 4.53,10.5l1.56 3.74c1.44,3.47 2.85,6.95 4.24,10.45l1.2 3.1c4.91,12.6 9.43,25.36 13.54,38.28l0 -982.19 460.9 0 -160.54 604.8 188.47 -41.61 -134.16 617.28 134.16 -271.64 0 962.98 -488.83 0 0 -501.34c-4.12,12.92 -8.64,25.67 -13.54,38.28l-1.2 3.1c-1.38,3.49 -2.8,6.98 -4.24,10.45l-1.56 3.74c-1.48,3.51 -2.99,7.02 -4.53,10.5l-1.14 2.53c-5.52,12.3 -11.38,24.44 -17.63,36.39l-0.17 0.31c-1.84,3.51 -3.72,7 -5.63,10.47l-1.78 3.26c-1.8,3.24 -3.62,6.48 -5.48,9.69l-2.05 3.52c-1.91,3.27 -3.83,6.53 -5.8,9.77l-1.54 2.51c-6.61,10.79 -13.52,21.4 -20.72,31.83l-1.79 2.61c-2.15,3.08 -4.33,6.13 -6.54,9.18l-2.49 3.44c-2.07,2.83 -4.17,5.65 -6.29,8.46l-3.24 4.24c-2.13,2.76 -4.25,5.53 -6.41,8.26l-1.94 2.41c-7.77,9.75 -15.83,19.3 -24.13,28.66l-2.82 3.18c-2.33,2.59 -4.69,5.17 -7.07,7.73l-3.8 4.07c-2.25,2.4 -4.51,4.79 -6.8,7.16l-4.04 4.13c-2.37,2.43 -4.76,4.85 -7.17,7.25l-2.16 2.11c-5.38,5.3 -10.86,10.5 -16.41,15.64l-3.02 2.81c-2.4,2.2 -4.83,4.36 -7.26,6.53l-4.83 4.28c-2.32,2.03 -4.66,4.06 -7.01,6.06l-5.12 4.33c-2.46,2.07 -4.93,4.12 -7.42,6.16l-4.53 3.64c-2.63,2.11 -5.25,4.23 -7.91,6.31l-1.99 1.53c-5.58,4.33 -11.24,8.59 -16.95,12.78l-5.72 4.17c-2.39,1.72 -4.8,3.41 -7.21,5.1l-6.07 4.22c-2.47,1.7 -4.95,3.39 -7.45,5.06l-6.17 4.09c-2.47,1.62 -4.93,3.24 -7.43,4.84l-6.58 4.14c-3.07,1.93 -6.16,3.84 -9.26,5.73 -3.72,2.27 -7.47,4.51 -11.24,6.72 -1.96,1.14 -3.94,2.26 -5.92,3.38 -2.86,1.63 -5.73,3.28 -8.62,4.89l-6.48 3.55c-2.67,1.45 -5.35,2.91 -8.05,4.32 -2.39,1.27 -4.78,2.52 -7.18,3.76 -2.5,1.29 -5.02,2.56 -7.54,3.83 -2.46,1.24 -4.93,2.48 -7.41,3.7 -3.27,1.61 -6.56,3.17 -9.87,4.73l-7.02 3.28c-4.14,1.91 -8.3,3.8 -12.48,5.64l-6.85 2.95c-2.95,1.27 -5.91,2.53 -8.88,3.77l-6.92 2.82c-3.02,1.22 -6.06,2.43 -9.1,3.61l-6.71 2.59c-3.22,1.22 -6.46,2.42 -9.7,3.6l-6.62 2.41c-5.1,1.82 -10.24,3.6 -15.4,5.32l-4.59 1.48c-3.87,1.26 -7.74,2.52 -11.64,3.73l-6.76 2.04c-3.42,1.02 -6.83,2.04 -10.27,3.03l-6.33 1.78c-3.69,1.02 -7.38,2.03 -11.09,3l-5.79 1.51c-4.02,1.02 -8.06,2.01 -12.11,2.98l-5.21 1.26c-5.58,1.3 -11.19,2.54 -16.82,3.72l-3.92 0.79c-4.45,0.91 -8.92,1.8 -13.4,2.65l-6.03 1.09c-3.8,0.68 -7.6,1.35 -11.43,1.99l-6.81 1.11c-3.68,0.58 -7.37,1.13 -11.07,1.67l-6.63 0.94c-4.45,0.61 -8.91,1.17 -13.39,1.7l-4.31 0.53c-5.83,0.68 -11.7,1.28 -17.57,1.83l-5.12 0.44c-4.4,0.38 -8.8,0.74 -13.22,1.06l-6.12 0.41c-3.94,0.25 -7.88,0.48 -11.84,0.69 -2.31,0.12 -4.61,0.24 -6.92,0.33 -4.04,0.17 -8.08,0.3 -12.13,0.42l-6.29 0.18c-6.04,0.14 -12.09,0.21 -18.17,0.21 -424.79,0 -769.14,-312.6 -769.14,-698.22 0,-385.61 344.35,-698.22 769.14,-698.22 6.07,0 12.13,0.08 18.17,0.21l262.2 47.65zm-280.37 323.61c162.51,0 294.22,146.29 294.22,326.75 0,180.46 -131.72,326.75 -294.22,326.75 -162.5,0 -294.21,-146.29 -294.21,-326.75 0,-180.46 131.72,-326.75 294.21,-326.75z"/>
  </g>
 </g>
</svg>
